HIERARCHY
ROOT hip
{
	OFFSET 0.000000 0.000000 0.000000 
	CHANNELS 6 Xposition Yposition Zposition Xrotation Zrotation Yrotation
	JOINT abdomen
	{
		OFFSET 0.000000 3.402643 0.000000 
		CHANNELS 3 Xrotation Zrotation Yrotation
		JOINT chest
		{
			OFFSET 0.000000 8.438565 -0.680529 
			CHANNELS 3 Xrotation Zrotation Yrotation
			JOINT neck
			{
				OFFSET 0.000000 10.207942 -0.272212 
				CHANNELS 3 Xrotation Zrotation Yrotation
				JOINT head
				{
					OFFSET 0.000000 3.130431 0.000000 
					CHANNELS 3 Xrotation Zrotation Yrotation
					End Site
					{
						OFFSET 0.000000 3.130435 0.000000 
					}
				}
			}
			JOINT lCollar
			{
				OFFSET 3.470700 6.669187 -0.816635 
				CHANNELS 3 Yrotation Zrotation Xrotation
				JOINT lShldr
				{
					OFFSET 3.198488 0.000000 0.000000 
					CHANNELS 3 Zrotation Yrotation Xrotation
					JOINT lForeArm
					{
						OFFSET 10.139888 0.000000 0.000000 
						CHANNELS 3 Yrotation Zrotation Xrotation
						JOINT lHand
						{
							OFFSET 8.370511 0.000000 0.000000 
							CHANNELS 3 Zrotation Yrotation Xrotation
							End Site
							{
								OFFSET 4.083176 0.000000 0.000000 
							}
						}
					}
				}
			}
			JOINT rCollar
			{
				OFFSET -3.470700 6.669187 -0.816635 
				CHANNELS 3 Yrotation Zrotation Xrotation
				JOINT rShldr
				{
					OFFSET -3.198488 0.000000 0.000000 
					CHANNELS 3 Zrotation Yrotation Xrotation
					JOINT rForeArm
					{
						OFFSET -10.139888 0.000000 0.000000 
						CHANNELS 3 Yrotation Zrotation Xrotation
						JOINT rHand
						{
							OFFSET -8.370511 0.000000 0.000000 
							CHANNELS 3 Zrotation Yrotation Xrotation
							End Site
							{
								OFFSET -4.083176 0.000000 0.000000 
							}
						}
					}
				}
			}
		}
	}
	JOINT lThigh
	{
		OFFSET 5.308129 -1.633274 1.361059 
		CHANNELS 3 Xrotation Zrotation Yrotation
		JOINT lShin
		{
			OFFSET -2.041588 -20.007561 0.000000 
			CHANNELS 3 Xrotation Zrotation Yrotation
			JOINT lFoot
			{
				OFFSET 0.000000 -19.190928 -1.224953 
				CHANNELS 3 Xrotation Yrotation Zrotation
				End Site
				{
					OFFSET 0.000000 -2.449906 4.627600 
				}
			}
		}
	}
	JOINT rThigh
	{
		OFFSET -5.308129 -1.633274 1.361059 
		CHANNELS 3 Xrotation Zrotation Yrotation
		JOINT rShin
		{
			OFFSET 2.041588 -20.007561 0.000000 
			CHANNELS 3 Xrotation Zrotation Yrotation
			JOINT rFoot
			{
				OFFSET 0.000000 -19.190928 -1.224953 
				CHANNELS 3 Xrotation Yrotation Zrotation
				End Site
				{
					OFFSET 0.000000 -2.449906 4.627600 
				}
			}
		}
	}
}
MOTION
Frames: 10
Frame Time: 0.011111
42.556396 50.518337 -52.289482 1.118172 -1.948941 -5.722877 9.694251 -2.132031 6.353008 -3.021996 1.673152 2.031524 -13.559764 -7.573100 -1.250097 30.068283 12.312754 -0.802141 12.413046 -14.960623 4.251975 -59.625175 -31.741959 24.705982 -58.517094 9.651468 10.740172 6.992188 16.005859 -57.477776 -6.427974 8.898234 2.089853 39.089550 17.488552 74.252487 78.657288 -8.695979 20.131594 -7.001954 -15.996095 67.392578 -23.761805 5.866532 4.541291 34.850742 -5.187111 -2.616297 -11.075925 -5.441540 -1.718895 2.188808 -0.943111 3.128902 52.777485 4.601620 4.038631 14.709398 -9.219004 1.710058 
42.593616 50.568691 -51.785610 0.922985 -1.485076 -6.011153 10.017739 -2.769049 6.427322 -2.806505 1.928434 2.073288 -14.430265 -7.487204 -1.086725 30.511370 12.119110 -0.632070 12.413046 -14.960623 4.251975 -59.553288 -32.208897 25.097836 -58.517094 9.651468 10.740172 6.992188 16.005859 -57.546135 -6.427974 8.898234 2.089853 38.938633 18.052925 74.061974 78.635651 -8.700039 20.120081 -7.001954 -15.996095 67.314453 -22.651085 5.340074 4.983985 34.682671 -5.186908 -2.609482 -11.679342 -5.405118 -1.745285 0.408359 -1.437897 3.256271 55.532158 4.493883 4.231161 14.215363 -10.285209 1.982797 
42.657734 50.621548 -51.267971 0.563431 -0.927594 -5.956724 10.355945 -3.431263 6.176184 -2.757141 2.103585 2.030409 -15.465748 -7.418484 -0.847279 31.716766 12.045244 -0.227543 12.413046 -14.960623 4.251975 -59.424217 -32.753819 25.156620 -57.910114 9.569946 10.472657 6.992188 16.005859 -57.809807 -6.427974 8.898234 2.089853 38.693089 18.338104 74.376938 78.728561 -8.675840 20.167917 -7.001954 -15.996095 67.197266 -21.249302 4.491974 5.171817 34.235123 -5.202334 -2.546832 -12.187650 -5.373786 -1.770173 -1.003217 -2.123873 3.006997 57.922832 4.366611 4.394925 13.056794 -11.239113 2.151971 
42.760635 50.668465 -50.702488 0.126368 -0.261252 -5.508405 10.666184 -4.012018 5.519356 -2.805559 2.206845 1.864947 -15.081392 -7.814789 -0.717449 31.301155 12.597409 0.131959 12.413046 -14.960623 4.251975 -59.247211 -32.869457 24.991150 -57.664837 9.533451 10.373379 6.992188 16.005859 -58.366447 -6.427974 8.898234 2.089853 38.350449 18.490763 74.896652 78.887901 -8.624877 20.244701 -7.001954 -15.996095 67.265625 -19.737074 3.317940 5.062409 33.860096 -5.196303 -2.539675 -12.701468 -5.343802 -1.794378 -2.171993 -3.107558 2.238997 60.193222 4.257796 4.549620 11.392146 -11.814091 2.144610 
42.831318 50.741650 -50.162334 -0.029153 -0.041964 -5.683580 10.748669 -4.195623 5.499240 -2.726836 2.399552 1.872820 -14.845068 -8.084761 -0.685843 30.716501 12.707877 0.144963 12.413046 -14.960623 4.251975 -59.211800 -33.053234 25.542496 -57.823772 9.553561 10.431896 6.992188 16.005859 -58.747303 -6.427974 8.898234 2.089853 38.016502 18.818836 74.947556 78.887901 -8.624877 20.244701 -7.001954 -15.996095 67.226563 -18.626867 2.879381 5.230903 33.461803 -5.211701 -2.488659 -13.227622 -5.218710 -1.795746 -3.696549 -3.501777 2.078596 62.325546 4.141785 4.710875 9.833363 -12.328387 2.089561 
42.862282 50.827976 -49.644699 -0.126230 -0.404187 -6.132000 10.839745 -3.757296 5.957255 -2.795254 2.418535 1.987574 -14.413859 -7.938236 -0.764717 30.168888 12.357490 -0.033095 12.413046 -14.960623 4.251975 -59.040634 -33.247242 26.402288 -57.664837 9.533451 10.373379 6.992188 16.005859 -59.128162 -6.427974 8.898234 2.089853 37.871948 18.932915 74.909744 78.838448 -8.641279 20.229656 -7.001954 -15.996095 67.011719 -17.731802 3.192631 5.372148 33.085133 -5.215365 -2.473793 -13.808888 -4.987233 -1.747570 -5.147708 -3.052020 2.244265 64.299492 4.034249 4.847492 8.156360 -12.915695 2.006449 
42.894817 50.871773 -49.128941 -0.388346 -0.481704 -6.207878 11.077683 -3.652442 6.091930 -2.912647 2.372933 2.020620 -14.776245 -7.193637 -0.799612 30.829868 11.506952 -0.183920 12.413046 -14.960623 4.251975 -58.640774 -33.415413 27.181347 -57.334602 9.483509 10.222849 6.992188 16.005859 -59.714104 -6.427974 8.898234 2.089853 37.914898 18.989635 74.834740 78.827667 -8.643412 20.217545 -7.001954 -15.996095 66.923828 -16.624174 3.064519 5.252644 32.777081 -5.221199 -2.434087 -14.385560 -4.819963 -1.727604 -6.444380 -3.036710 1.930637 66.096069 3.926744 4.954581 6.222574 -13.155568 1.782022 
42.941101 50.890217 -48.632889 -0.543886 -0.184073 -5.994640 11.225636 -3.971328 5.813568 -2.756001 2.466945 1.951362 -14.891783 -7.329320 -0.793108 31.101393 11.852046 -0.109403 12.413046 -14.960623 4.251975 -58.270187 -34.025139 27.895426 -56.952305 9.427124 10.067150 6.992188 16.005859 -59.821529 -6.427974 8.898234 2.089853 37.917110 19.429491 74.751747 78.788933 -8.657574 20.203375 -7.001954 -15.996095 67.089844 -15.653535 2.490057 5.061617 32.458698 -5.231350 -2.423520 -14.532905 -4.686635 -1.690842 -7.925083 -3.562504 1.225685 67.646477 3.838635 5.051965 4.672650 -13.015629 1.531336 
42.986458 50.923996 -48.119324 -0.768123 0.123343 -5.353684 11.488318 -4.181229 5.107421 -2.716106 2.685035 1.772941 -14.481389 -7.709246 -0.757966 30.488905 12.325320 0.046661 12.413046 -14.960623 4.251975 -58.352493 -34.508972 28.080803 -56.708412 9.390795 9.958508 6.992188 16.005859 -59.997303 -6.427974 8.898234 2.089853 37.635067 19.803894 74.887962 78.839905 -8.643169 20.229362 -7.001954 -15.996095 67.373047 -14.578571 1.816089 4.736382 32.132256 -5.225413 -2.369844 -14.675662 -4.786866 -1.725240 -9.105621 -4.128298 0.295656 68.891869 3.779405 5.116807 2.882346 -12.910363 1.254482 
43.009911 50.988426 -47.606068 -0.875376 0.009193 -5.137460 11.605071 -3.982067 4.826519 -3.057728 2.814405 1.671262 -13.744248 -7.511891 -0.734280 29.719221 12.184374 0.168965 12.413046 -14.960623 4.251975 -58.377293 -34.425999 28.064020 -56.824879 9.407631 10.012819 6.992188 16.005859 -60.339108 -6.427974 8.898234 2.089853 37.340755 19.738773 75.174568 78.950951 -8.609918 20.289349 -7.001954 -15.996095 67.529297 -13.608102 1.727446 4.497101 31.703897 -5.240557 -2.356311 -15.222497 -4.818571 -1.746824 -10.289109 -4.002406 0.060052 69.921326 3.729848 5.169242 0.770259 -13.217968 0.950321 
